<mxfile host="app.diagrams.net" agent="Mozilla/5.0 (Windows NT 10.0; Win64; x64) AppleWebKit/537.36 (KHTML, like Gecko) Chrome/131.0.0.0 Safari/537.36" version="25.0.3">
  <diagram name="Page-1" id="SSajYdOYX4zulc2PRrKl">
    <mxGraphModel dx="1434" dy="746" grid="1" gridSize="10" guides="1" tooltips="1" connect="1" arrows="1" fold="1" page="1" pageScale="1" pageWidth="850" pageHeight="1100" math="0" shadow="0">
      <root>
        <mxCell id="0" />
        <mxCell id="1" parent="0" />
        <mxCell id="HTiZG0fGV4V8QeB7wR9G-9" style="edgeStyle=orthogonalEdgeStyle;rounded=0;orthogonalLoop=1;jettySize=auto;html=1;entryX=0.5;entryY=0;entryDx=0;entryDy=0;" edge="1" parent="1" source="HTiZG0fGV4V8QeB7wR9G-1" target="HTiZG0fGV4V8QeB7wR9G-4">
          <mxGeometry relative="1" as="geometry" />
        </mxCell>
        <mxCell id="HTiZG0fGV4V8QeB7wR9G-1" value="&lt;font style=&quot;font-size: 24px;&quot;&gt;start&lt;/font&gt;" style="strokeWidth=2;html=1;shape=mxgraph.flowchart.start_1;whiteSpace=wrap;" vertex="1" parent="1">
          <mxGeometry x="375" y="40" width="100" height="60" as="geometry" />
        </mxCell>
        <mxCell id="HTiZG0fGV4V8QeB7wR9G-2" value="&lt;font style=&quot;font-size: 24px;&quot;&gt;end&lt;/font&gt;" style="strokeWidth=2;html=1;shape=mxgraph.flowchart.start_1;whiteSpace=wrap;" vertex="1" parent="1">
          <mxGeometry x="375" y="1630" width="100" height="60" as="geometry" />
        </mxCell>
        <mxCell id="HTiZG0fGV4V8QeB7wR9G-11" style="edgeStyle=orthogonalEdgeStyle;rounded=0;orthogonalLoop=1;jettySize=auto;html=1;entryX=0.5;entryY=0;entryDx=0;entryDy=0;" edge="1" parent="1" source="HTiZG0fGV4V8QeB7wR9G-3" target="HTiZG0fGV4V8QeB7wR9G-7">
          <mxGeometry relative="1" as="geometry" />
        </mxCell>
        <mxCell id="HTiZG0fGV4V8QeB7wR9G-15" style="edgeStyle=orthogonalEdgeStyle;rounded=0;orthogonalLoop=1;jettySize=auto;html=1;entryX=0.5;entryY=0;entryDx=0;entryDy=0;" edge="1" parent="1" source="HTiZG0fGV4V8QeB7wR9G-3" target="HTiZG0fGV4V8QeB7wR9G-14">
          <mxGeometry relative="1" as="geometry" />
        </mxCell>
        <mxCell id="HTiZG0fGV4V8QeB7wR9G-3" value="for (i &amp;lt; n1, i++)" style="rhombus;whiteSpace=wrap;html=1;" vertex="1" parent="1">
          <mxGeometry x="354" y="220" width="142" height="70" as="geometry" />
        </mxCell>
        <mxCell id="HTiZG0fGV4V8QeB7wR9G-10" style="edgeStyle=orthogonalEdgeStyle;rounded=0;orthogonalLoop=1;jettySize=auto;html=1;entryX=0.5;entryY=0;entryDx=0;entryDy=0;" edge="1" parent="1" source="HTiZG0fGV4V8QeB7wR9G-4" target="HTiZG0fGV4V8QeB7wR9G-3">
          <mxGeometry relative="1" as="geometry" />
        </mxCell>
        <mxCell id="HTiZG0fGV4V8QeB7wR9G-4" value="input n1" style="shape=parallelogram;perimeter=parallelogramPerimeter;whiteSpace=wrap;html=1;fixedSize=1;" vertex="1" parent="1">
          <mxGeometry x="349" y="150" width="152" height="30" as="geometry" />
        </mxCell>
        <mxCell id="HTiZG0fGV4V8QeB7wR9G-27" style="edgeStyle=orthogonalEdgeStyle;rounded=0;orthogonalLoop=1;jettySize=auto;html=1;entryX=0.5;entryY=0;entryDx=0;entryDy=0;" edge="1" parent="1" source="HTiZG0fGV4V8QeB7wR9G-5" target="HTiZG0fGV4V8QeB7wR9G-23">
          <mxGeometry relative="1" as="geometry" />
        </mxCell>
        <mxCell id="HTiZG0fGV4V8QeB7wR9G-5" value="n3 = n1 + n2" style="rounded=1;whiteSpace=wrap;html=1;absoluteArcSize=1;arcSize=14;strokeWidth=2;" vertex="1" parent="1">
          <mxGeometry x="375" y="790" width="100" height="40" as="geometry" />
        </mxCell>
        <mxCell id="HTiZG0fGV4V8QeB7wR9G-12" style="edgeStyle=orthogonalEdgeStyle;rounded=0;orthogonalLoop=1;jettySize=auto;html=1;" edge="1" parent="1" source="HTiZG0fGV4V8QeB7wR9G-7" target="HTiZG0fGV4V8QeB7wR9G-8">
          <mxGeometry relative="1" as="geometry" />
        </mxCell>
        <mxCell id="HTiZG0fGV4V8QeB7wR9G-7" value="output&lt;div&gt;&quot;--| Array1, &quot;[&quot;, i, &quot;]&quot;&lt;br&gt;&lt;/div&gt;" style="shape=parallelogram;perimeter=parallelogramPerimeter;whiteSpace=wrap;html=1;fixedSize=1;" vertex="1" parent="1">
          <mxGeometry x="510" y="340" width="152" height="30" as="geometry" />
        </mxCell>
        <mxCell id="HTiZG0fGV4V8QeB7wR9G-13" style="edgeStyle=orthogonalEdgeStyle;rounded=0;orthogonalLoop=1;jettySize=auto;html=1;entryX=1;entryY=1;entryDx=0;entryDy=0;" edge="1" parent="1" source="HTiZG0fGV4V8QeB7wR9G-8" target="HTiZG0fGV4V8QeB7wR9G-3">
          <mxGeometry relative="1" as="geometry" />
        </mxCell>
        <mxCell id="HTiZG0fGV4V8QeB7wR9G-8" value="input array1[i]" style="shape=parallelogram;perimeter=parallelogramPerimeter;whiteSpace=wrap;html=1;fixedSize=1;" vertex="1" parent="1">
          <mxGeometry x="510" y="410" width="152" height="30" as="geometry" />
        </mxCell>
        <mxCell id="HTiZG0fGV4V8QeB7wR9G-19" style="edgeStyle=orthogonalEdgeStyle;rounded=0;orthogonalLoop=1;jettySize=auto;html=1;entryX=0.5;entryY=0;entryDx=0;entryDy=0;" edge="1" parent="1" source="HTiZG0fGV4V8QeB7wR9G-14" target="HTiZG0fGV4V8QeB7wR9G-16">
          <mxGeometry relative="1" as="geometry" />
        </mxCell>
        <mxCell id="HTiZG0fGV4V8QeB7wR9G-14" value="input n1" style="shape=parallelogram;perimeter=parallelogramPerimeter;whiteSpace=wrap;html=1;fixedSize=1;" vertex="1" parent="1">
          <mxGeometry x="349" y="470" width="152" height="30" as="geometry" />
        </mxCell>
        <mxCell id="HTiZG0fGV4V8QeB7wR9G-20" style="edgeStyle=orthogonalEdgeStyle;rounded=0;orthogonalLoop=1;jettySize=auto;html=1;entryX=0.5;entryY=0;entryDx=0;entryDy=0;" edge="1" parent="1" source="HTiZG0fGV4V8QeB7wR9G-16" target="HTiZG0fGV4V8QeB7wR9G-17">
          <mxGeometry relative="1" as="geometry" />
        </mxCell>
        <mxCell id="HTiZG0fGV4V8QeB7wR9G-28" style="edgeStyle=orthogonalEdgeStyle;rounded=0;orthogonalLoop=1;jettySize=auto;html=1;entryX=0.5;entryY=0;entryDx=0;entryDy=0;" edge="1" parent="1" source="HTiZG0fGV4V8QeB7wR9G-16" target="HTiZG0fGV4V8QeB7wR9G-5">
          <mxGeometry relative="1" as="geometry" />
        </mxCell>
        <mxCell id="HTiZG0fGV4V8QeB7wR9G-16" value="for (i &amp;lt; n2, i++)" style="rhombus;whiteSpace=wrap;html=1;" vertex="1" parent="1">
          <mxGeometry x="354" y="550" width="142" height="70" as="geometry" />
        </mxCell>
        <mxCell id="HTiZG0fGV4V8QeB7wR9G-21" style="edgeStyle=orthogonalEdgeStyle;rounded=0;orthogonalLoop=1;jettySize=auto;html=1;entryX=0.5;entryY=0;entryDx=0;entryDy=0;" edge="1" parent="1" source="HTiZG0fGV4V8QeB7wR9G-17" target="HTiZG0fGV4V8QeB7wR9G-18">
          <mxGeometry relative="1" as="geometry" />
        </mxCell>
        <mxCell id="HTiZG0fGV4V8QeB7wR9G-17" value="output&lt;div&gt;&quot;--| Array2, &quot;[&quot;, i, &quot;]&quot;&lt;br&gt;&lt;/div&gt;" style="shape=parallelogram;perimeter=parallelogramPerimeter;whiteSpace=wrap;html=1;fixedSize=1;" vertex="1" parent="1">
          <mxGeometry x="510" y="670" width="152" height="30" as="geometry" />
        </mxCell>
        <mxCell id="HTiZG0fGV4V8QeB7wR9G-22" style="edgeStyle=orthogonalEdgeStyle;rounded=0;orthogonalLoop=1;jettySize=auto;html=1;entryX=1;entryY=1;entryDx=0;entryDy=0;" edge="1" parent="1" source="HTiZG0fGV4V8QeB7wR9G-18" target="HTiZG0fGV4V8QeB7wR9G-16">
          <mxGeometry relative="1" as="geometry" />
        </mxCell>
        <mxCell id="HTiZG0fGV4V8QeB7wR9G-18" value="input array2[i]" style="shape=parallelogram;perimeter=parallelogramPerimeter;whiteSpace=wrap;html=1;fixedSize=1;" vertex="1" parent="1">
          <mxGeometry x="510" y="740" width="152" height="30" as="geometry" />
        </mxCell>
        <mxCell id="HTiZG0fGV4V8QeB7wR9G-29" style="edgeStyle=orthogonalEdgeStyle;rounded=0;orthogonalLoop=1;jettySize=auto;html=1;entryX=0.5;entryY=0;entryDx=0;entryDy=0;" edge="1" parent="1" source="HTiZG0fGV4V8QeB7wR9G-23" target="HTiZG0fGV4V8QeB7wR9G-25">
          <mxGeometry relative="1" as="geometry" />
        </mxCell>
        <mxCell id="HTiZG0fGV4V8QeB7wR9G-31" style="edgeStyle=orthogonalEdgeStyle;rounded=0;orthogonalLoop=1;jettySize=auto;html=1;exitX=0.5;exitY=1;exitDx=0;exitDy=0;entryX=0.5;entryY=0;entryDx=0;entryDy=0;" edge="1" parent="1" source="HTiZG0fGV4V8QeB7wR9G-23" target="HTiZG0fGV4V8QeB7wR9G-24">
          <mxGeometry relative="1" as="geometry" />
        </mxCell>
        <mxCell id="HTiZG0fGV4V8QeB7wR9G-23" value="for (i &amp;lt; n1, i++)" style="rhombus;whiteSpace=wrap;html=1;" vertex="1" parent="1">
          <mxGeometry x="354" y="880" width="142" height="70" as="geometry" />
        </mxCell>
        <mxCell id="HTiZG0fGV4V8QeB7wR9G-32" style="edgeStyle=orthogonalEdgeStyle;rounded=0;orthogonalLoop=1;jettySize=auto;html=1;entryX=0.5;entryY=0;entryDx=0;entryDy=0;" edge="1" parent="1" source="HTiZG0fGV4V8QeB7wR9G-24" target="HTiZG0fGV4V8QeB7wR9G-26">
          <mxGeometry relative="1" as="geometry" />
        </mxCell>
        <mxCell id="HTiZG0fGV4V8QeB7wR9G-35" style="edgeStyle=orthogonalEdgeStyle;rounded=0;orthogonalLoop=1;jettySize=auto;html=1;entryX=0.5;entryY=0;entryDx=0;entryDy=0;" edge="1" parent="1" source="HTiZG0fGV4V8QeB7wR9G-24" target="HTiZG0fGV4V8QeB7wR9G-34">
          <mxGeometry relative="1" as="geometry" />
        </mxCell>
        <mxCell id="HTiZG0fGV4V8QeB7wR9G-24" value="for (i &amp;lt; n2, i++)" style="rhombus;whiteSpace=wrap;html=1;" vertex="1" parent="1">
          <mxGeometry x="354" y="1040" width="142" height="70" as="geometry" />
        </mxCell>
        <mxCell id="HTiZG0fGV4V8QeB7wR9G-30" style="edgeStyle=orthogonalEdgeStyle;rounded=0;orthogonalLoop=1;jettySize=auto;html=1;entryX=1;entryY=1;entryDx=0;entryDy=0;" edge="1" parent="1" source="HTiZG0fGV4V8QeB7wR9G-25" target="HTiZG0fGV4V8QeB7wR9G-23">
          <mxGeometry relative="1" as="geometry" />
        </mxCell>
        <mxCell id="HTiZG0fGV4V8QeB7wR9G-25" value="array3[i] = array1[i]" style="rounded=1;whiteSpace=wrap;html=1;absoluteArcSize=1;arcSize=14;strokeWidth=2;" vertex="1" parent="1">
          <mxGeometry x="560" y="960" width="120" height="40" as="geometry" />
        </mxCell>
        <mxCell id="HTiZG0fGV4V8QeB7wR9G-33" style="edgeStyle=orthogonalEdgeStyle;rounded=0;orthogonalLoop=1;jettySize=auto;html=1;entryX=1;entryY=1;entryDx=0;entryDy=0;" edge="1" parent="1" source="HTiZG0fGV4V8QeB7wR9G-26" target="HTiZG0fGV4V8QeB7wR9G-24">
          <mxGeometry relative="1" as="geometry" />
        </mxCell>
        <mxCell id="HTiZG0fGV4V8QeB7wR9G-26" value="array3[n1 + i] = array2[i]" style="rounded=1;whiteSpace=wrap;html=1;absoluteArcSize=1;arcSize=14;strokeWidth=2;" vertex="1" parent="1">
          <mxGeometry x="560" y="1120" width="150" height="40" as="geometry" />
        </mxCell>
        <mxCell id="HTiZG0fGV4V8QeB7wR9G-37" style="edgeStyle=orthogonalEdgeStyle;rounded=0;orthogonalLoop=1;jettySize=auto;html=1;entryX=0.5;entryY=0;entryDx=0;entryDy=0;" edge="1" parent="1" source="HTiZG0fGV4V8QeB7wR9G-34" target="HTiZG0fGV4V8QeB7wR9G-36">
          <mxGeometry relative="1" as="geometry" />
        </mxCell>
        <mxCell id="HTiZG0fGV4V8QeB7wR9G-34" value="qsort(array3, n3, sizeof(int),compare" style="rounded=1;whiteSpace=wrap;html=1;absoluteArcSize=1;arcSize=14;strokeWidth=2;" vertex="1" parent="1">
          <mxGeometry x="318" y="1180" width="215" height="40" as="geometry" />
        </mxCell>
        <mxCell id="HTiZG0fGV4V8QeB7wR9G-39" style="edgeStyle=orthogonalEdgeStyle;rounded=0;orthogonalLoop=1;jettySize=auto;html=1;entryX=0.5;entryY=0;entryDx=0;entryDy=0;" edge="1" parent="1" source="HTiZG0fGV4V8QeB7wR9G-36" target="HTiZG0fGV4V8QeB7wR9G-38">
          <mxGeometry relative="1" as="geometry" />
        </mxCell>
        <mxCell id="HTiZG0fGV4V8QeB7wR9G-36" value="output&lt;div&gt;&quot;Merge Array1 &amp;amp; Array2 to Array3&quot;&lt;/div&gt;" style="shape=parallelogram;perimeter=parallelogramPerimeter;whiteSpace=wrap;html=1;fixedSize=1;" vertex="1" parent="1">
          <mxGeometry x="320" y="1270" width="211" height="50" as="geometry" />
        </mxCell>
        <mxCell id="HTiZG0fGV4V8QeB7wR9G-42" style="edgeStyle=orthogonalEdgeStyle;rounded=0;orthogonalLoop=1;jettySize=auto;html=1;entryX=0.5;entryY=0;entryDx=0;entryDy=0;" edge="1" parent="1" source="HTiZG0fGV4V8QeB7wR9G-38" target="HTiZG0fGV4V8QeB7wR9G-40">
          <mxGeometry relative="1" as="geometry" />
        </mxCell>
        <mxCell id="HTiZG0fGV4V8QeB7wR9G-38" value="output&lt;div&gt;&quot;Array3 = &quot;&lt;/div&gt;" style="shape=parallelogram;perimeter=parallelogramPerimeter;whiteSpace=wrap;html=1;fixedSize=1;" vertex="1" parent="1">
          <mxGeometry x="320" y="1370" width="211" height="50" as="geometry" />
        </mxCell>
        <mxCell id="HTiZG0fGV4V8QeB7wR9G-43" style="edgeStyle=orthogonalEdgeStyle;rounded=0;orthogonalLoop=1;jettySize=auto;html=1;entryX=0.5;entryY=0;entryDx=0;entryDy=0;" edge="1" parent="1" source="HTiZG0fGV4V8QeB7wR9G-40" target="HTiZG0fGV4V8QeB7wR9G-41">
          <mxGeometry relative="1" as="geometry" />
        </mxCell>
        <mxCell id="HTiZG0fGV4V8QeB7wR9G-40" value="for (i &amp;lt; n3, i++)" style="rhombus;whiteSpace=wrap;html=1;" vertex="1" parent="1">
          <mxGeometry x="354.5" y="1470" width="142" height="70" as="geometry" />
        </mxCell>
        <mxCell id="HTiZG0fGV4V8QeB7wR9G-44" style="edgeStyle=orthogonalEdgeStyle;rounded=0;orthogonalLoop=1;jettySize=auto;html=1;entryX=1;entryY=1;entryDx=0;entryDy=0;" edge="1" parent="1" source="HTiZG0fGV4V8QeB7wR9G-41" target="HTiZG0fGV4V8QeB7wR9G-40">
          <mxGeometry relative="1" as="geometry" />
        </mxCell>
        <mxCell id="HTiZG0fGV4V8QeB7wR9G-41" value="output array3[i]" style="shape=parallelogram;perimeter=parallelogramPerimeter;whiteSpace=wrap;html=1;fixedSize=1;" vertex="1" parent="1">
          <mxGeometry x="510" y="1580" width="144" height="30" as="geometry" />
        </mxCell>
        <mxCell id="HTiZG0fGV4V8QeB7wR9G-45" style="edgeStyle=orthogonalEdgeStyle;rounded=0;orthogonalLoop=1;jettySize=auto;html=1;entryX=0.5;entryY=0;entryDx=0;entryDy=0;entryPerimeter=0;" edge="1" parent="1" source="HTiZG0fGV4V8QeB7wR9G-40" target="HTiZG0fGV4V8QeB7wR9G-2">
          <mxGeometry relative="1" as="geometry" />
        </mxCell>
        <mxCell id="HTiZG0fGV4V8QeB7wR9G-47" value="&lt;font style=&quot;font-size: 16px;&quot;&gt;compare( *a, *b)&lt;/font&gt;" style="strokeWidth=2;html=1;shape=mxgraph.flowchart.start_1;whiteSpace=wrap;" vertex="1" parent="1">
          <mxGeometry x="812.5" y="40" width="150" height="80" as="geometry" />
        </mxCell>
        <mxCell id="HTiZG0fGV4V8QeB7wR9G-48" value="&lt;font style=&quot;font-size: 16px;&quot;&gt;return (*(int *) b - *(int *) a&lt;/font&gt;" style="strokeWidth=2;html=1;shape=mxgraph.flowchart.start_1;whiteSpace=wrap;" vertex="1" parent="1">
          <mxGeometry x="790" y="190" width="195" height="80" as="geometry" />
        </mxCell>
        <mxCell id="HTiZG0fGV4V8QeB7wR9G-49" style="edgeStyle=orthogonalEdgeStyle;rounded=0;orthogonalLoop=1;jettySize=auto;html=1;entryX=0.5;entryY=0;entryDx=0;entryDy=0;entryPerimeter=0;" edge="1" parent="1" source="HTiZG0fGV4V8QeB7wR9G-47" target="HTiZG0fGV4V8QeB7wR9G-48">
          <mxGeometry relative="1" as="geometry" />
        </mxCell>
      </root>
    </mxGraphModel>
  </diagram>
</mxfile>
